<?xml version="1.0" encoding="UTF-8" standalone="no"?>
<!DOCTYPE svg PUBLIC "-//W3C//DTD SVG 1.1//EN"
 "http://www.w3.org/Graphics/SVG/1.1/DTD/svg11.dtd">
<!-- Generated by graphviz version 2.43.0 (0)
 -->
<!-- Title: TOKENS Pages: 1 -->
<svg width="199pt" height="994pt"
 viewBox="0.00 0.00 199.00 994.00" xmlns="http://www.w3.org/2000/svg" xmlns:xlink="http://www.w3.org/1999/xlink">
<g id="graph0" class="graph" transform="scale(1 1) rotate(0) translate(4 990)">
<title>TOKENS</title>
<polygon fill="white" stroke="transparent" points="-4,4 -4,-990 195,-990 195,4 -4,4"/>
<!-- nd000000 -->
<g id="node1" class="node">
<title>nd000000</title>
<polygon fill="none" stroke="black" points="19.5,-949.5 19.5,-985.5 171.5,-985.5 171.5,-949.5 19.5,-949.5"/>
<text text-anchor="middle" x="44.5" y="-963.8" font-family="Times,serif" font-size="14.00">[1:1]</text>
<polyline fill="none" stroke="black" points="69.5,-949.5 69.5,-985.5 "/>
<text text-anchor="middle" x="104" y="-963.8" font-family="Times,serif" font-size="14.00">TK_INT</text>
<polyline fill="none" stroke="black" points="138.5,-949.5 138.5,-985.5 "/>
<text text-anchor="middle" x="155" y="-963.8" font-family="Times,serif" font-size="14.00">&#39;2&#39;</text>
</g>
<!-- nd000001 -->
<g id="node2" class="node">
<title>nd000001</title>
<polygon fill="none" stroke="black" points="14,-876.5 14,-912.5 177,-912.5 177,-876.5 14,-876.5"/>
<text text-anchor="middle" x="39" y="-890.8" font-family="Times,serif" font-size="14.00">[1:3]</text>
<polyline fill="none" stroke="black" points="64,-876.5 64,-912.5 "/>
<text text-anchor="middle" x="105" y="-890.8" font-family="Times,serif" font-size="14.00">TK_STAR</text>
<polyline fill="none" stroke="black" points="146,-876.5 146,-912.5 "/>
<text text-anchor="middle" x="161.5" y="-890.8" font-family="Times,serif" font-size="14.00">&#39;*&#39;</text>
</g>
<!-- nd000000&#45;&gt;nd000001 -->
<g id="edge1" class="edge">
<title>nd000000&#45;&gt;nd000001</title>
<path fill="none" stroke="black" d="M95.5,-949.31C95.5,-941.29 95.5,-931.55 95.5,-922.57"/>
<polygon fill="black" stroke="black" points="99,-922.53 95.5,-912.53 92,-922.53 99,-922.53"/>
</g>
<!-- nd000002 -->
<g id="node3" class="node">
<title>nd000002</title>
<polygon fill="none" stroke="black" points="19.5,-803.5 19.5,-839.5 171.5,-839.5 171.5,-803.5 19.5,-803.5"/>
<text text-anchor="middle" x="44.5" y="-817.8" font-family="Times,serif" font-size="14.00">[1:5]</text>
<polyline fill="none" stroke="black" points="69.5,-803.5 69.5,-839.5 "/>
<text text-anchor="middle" x="104" y="-817.8" font-family="Times,serif" font-size="14.00">TK_INT</text>
<polyline fill="none" stroke="black" points="138.5,-803.5 138.5,-839.5 "/>
<text text-anchor="middle" x="155" y="-817.8" font-family="Times,serif" font-size="14.00">&#39;3&#39;</text>
</g>
<!-- nd000001&#45;&gt;nd000002 -->
<g id="edge2" class="edge">
<title>nd000001&#45;&gt;nd000002</title>
<path fill="none" stroke="black" d="M95.5,-876.31C95.5,-868.29 95.5,-858.55 95.5,-849.57"/>
<polygon fill="black" stroke="black" points="99,-849.53 95.5,-839.53 92,-849.53 99,-849.53"/>
</g>
<!-- nd000003 -->
<g id="node4" class="node">
<title>nd000003</title>
<polygon fill="none" stroke="black" points="11,-730.5 11,-766.5 180,-766.5 180,-730.5 11,-730.5"/>
<text text-anchor="middle" x="36" y="-744.8" font-family="Times,serif" font-size="14.00">[1:7]</text>
<polyline fill="none" stroke="black" points="61,-730.5 61,-766.5 "/>
<text text-anchor="middle" x="102.5" y="-744.8" font-family="Times,serif" font-size="14.00">TK_PLUS</text>
<polyline fill="none" stroke="black" points="144,-730.5 144,-766.5 "/>
<text text-anchor="middle" x="162" y="-744.8" font-family="Times,serif" font-size="14.00">&#39;+&#39;</text>
</g>
<!-- nd000002&#45;&gt;nd000003 -->
<g id="edge3" class="edge">
<title>nd000002&#45;&gt;nd000003</title>
<path fill="none" stroke="black" d="M95.5,-803.31C95.5,-795.29 95.5,-785.55 95.5,-776.57"/>
<polygon fill="black" stroke="black" points="99,-776.53 95.5,-766.53 92,-776.53 99,-776.53"/>
</g>
<!-- nd000004 -->
<g id="node5" class="node">
<title>nd000004</title>
<polygon fill="none" stroke="black" points="19.5,-657.5 19.5,-693.5 171.5,-693.5 171.5,-657.5 19.5,-657.5"/>
<text text-anchor="middle" x="44.5" y="-671.8" font-family="Times,serif" font-size="14.00">[1:9]</text>
<polyline fill="none" stroke="black" points="69.5,-657.5 69.5,-693.5 "/>
<text text-anchor="middle" x="104" y="-671.8" font-family="Times,serif" font-size="14.00">TK_INT</text>
<polyline fill="none" stroke="black" points="138.5,-657.5 138.5,-693.5 "/>
<text text-anchor="middle" x="155" y="-671.8" font-family="Times,serif" font-size="14.00">&#39;4&#39;</text>
</g>
<!-- nd000003&#45;&gt;nd000004 -->
<g id="edge4" class="edge">
<title>nd000003&#45;&gt;nd000004</title>
<path fill="none" stroke="black" d="M95.5,-730.31C95.5,-722.29 95.5,-712.55 95.5,-703.57"/>
<polygon fill="black" stroke="black" points="99,-703.53 95.5,-693.53 92,-703.53 99,-703.53"/>
</g>
<!-- nd000005 -->
<g id="node6" class="node">
<title>nd000005</title>
<polygon fill="none" stroke="black" points="5,-584.5 5,-620.5 186,-620.5 186,-584.5 5,-584.5"/>
<text text-anchor="middle" x="34.5" y="-598.8" font-family="Times,serif" font-size="14.00">[1:11]</text>
<polyline fill="none" stroke="black" points="64,-584.5 64,-620.5 "/>
<text text-anchor="middle" x="110.5" y="-598.8" font-family="Times,serif" font-size="14.00">TK_SLASH</text>
<polyline fill="none" stroke="black" points="157,-584.5 157,-620.5 "/>
<text text-anchor="middle" x="171.5" y="-598.8" font-family="Times,serif" font-size="14.00">&#39;/&#39;</text>
</g>
<!-- nd000004&#45;&gt;nd000005 -->
<g id="edge5" class="edge">
<title>nd000004&#45;&gt;nd000005</title>
<path fill="none" stroke="black" d="M95.5,-657.31C95.5,-649.29 95.5,-639.55 95.5,-630.57"/>
<polygon fill="black" stroke="black" points="99,-630.53 95.5,-620.53 92,-630.53 99,-630.53"/>
</g>
<!-- nd000006 -->
<g id="node7" class="node">
<title>nd000006</title>
<polygon fill="none" stroke="black" points="6,-511.5 6,-547.5 185,-547.5 185,-511.5 6,-511.5"/>
<text text-anchor="middle" x="35.5" y="-525.8" font-family="Times,serif" font-size="14.00">[1:13]</text>
<polyline fill="none" stroke="black" points="65,-511.5 65,-547.5 "/>
<text text-anchor="middle" x="99.5" y="-525.8" font-family="Times,serif" font-size="14.00">TK_INT</text>
<polyline fill="none" stroke="black" points="134,-511.5 134,-547.5 "/>
<text text-anchor="middle" x="159.5" y="-525.8" font-family="Times,serif" font-size="14.00">&#39;222&#39;</text>
</g>
<!-- nd000005&#45;&gt;nd000006 -->
<g id="edge6" class="edge">
<title>nd000005&#45;&gt;nd000006</title>
<path fill="none" stroke="black" d="M95.5,-584.31C95.5,-576.29 95.5,-566.55 95.5,-557.57"/>
<polygon fill="black" stroke="black" points="99,-557.53 95.5,-547.53 92,-557.53 99,-557.53"/>
</g>
<!-- nd000007 -->
<g id="node8" class="node">
<title>nd000007</title>
<polygon fill="none" stroke="black" points="6.5,-438.5 6.5,-474.5 184.5,-474.5 184.5,-438.5 6.5,-438.5"/>
<text text-anchor="middle" x="36" y="-452.8" font-family="Times,serif" font-size="14.00">[1:17]</text>
<polyline fill="none" stroke="black" points="65.5,-438.5 65.5,-474.5 "/>
<text text-anchor="middle" x="107" y="-452.8" font-family="Times,serif" font-size="14.00">TK_PLUS</text>
<polyline fill="none" stroke="black" points="148.5,-438.5 148.5,-474.5 "/>
<text text-anchor="middle" x="166.5" y="-452.8" font-family="Times,serif" font-size="14.00">&#39;+&#39;</text>
</g>
<!-- nd000006&#45;&gt;nd000007 -->
<g id="edge7" class="edge">
<title>nd000006&#45;&gt;nd000007</title>
<path fill="none" stroke="black" d="M95.5,-511.31C95.5,-503.29 95.5,-493.55 95.5,-484.57"/>
<polygon fill="black" stroke="black" points="99,-484.53 95.5,-474.53 92,-484.53 99,-484.53"/>
</g>
<!-- nd000008 -->
<g id="node9" class="node">
<title>nd000008</title>
<polygon fill="none" stroke="black" points="6,-365.5 6,-401.5 185,-401.5 185,-365.5 6,-365.5"/>
<text text-anchor="middle" x="35.5" y="-379.8" font-family="Times,serif" font-size="14.00">[1:19]</text>
<polyline fill="none" stroke="black" points="65,-365.5 65,-401.5 "/>
<text text-anchor="middle" x="99.5" y="-379.8" font-family="Times,serif" font-size="14.00">TK_INT</text>
<polyline fill="none" stroke="black" points="134,-365.5 134,-401.5 "/>
<text text-anchor="middle" x="159.5" y="-379.8" font-family="Times,serif" font-size="14.00">&#39;384&#39;</text>
</g>
<!-- nd000007&#45;&gt;nd000008 -->
<g id="edge8" class="edge">
<title>nd000007&#45;&gt;nd000008</title>
<path fill="none" stroke="black" d="M95.5,-438.31C95.5,-430.29 95.5,-420.55 95.5,-411.57"/>
<polygon fill="black" stroke="black" points="99,-411.53 95.5,-401.53 92,-411.53 99,-411.53"/>
</g>
<!-- nd000009 -->
<g id="node10" class="node">
<title>nd000009</title>
<polygon fill="none" stroke="black" points="3.5,-292.5 3.5,-328.5 187.5,-328.5 187.5,-292.5 3.5,-292.5"/>
<text text-anchor="middle" x="33" y="-306.8" font-family="Times,serif" font-size="14.00">[1:23]</text>
<polyline fill="none" stroke="black" points="62.5,-292.5 62.5,-328.5 "/>
<text text-anchor="middle" x="110.5" y="-306.8" font-family="Times,serif" font-size="14.00">TK_MINUS</text>
<polyline fill="none" stroke="black" points="158.5,-292.5 158.5,-328.5 "/>
<text text-anchor="middle" x="173" y="-306.8" font-family="Times,serif" font-size="14.00">&#39;&#45;&#39;</text>
</g>
<!-- nd000008&#45;&gt;nd000009 -->
<g id="edge9" class="edge">
<title>nd000008&#45;&gt;nd000009</title>
<path fill="none" stroke="black" d="M95.5,-365.31C95.5,-357.29 95.5,-347.55 95.5,-338.57"/>
<polygon fill="black" stroke="black" points="99,-338.53 95.5,-328.53 92,-338.53 99,-338.53"/>
</g>
<!-- nd000010 -->
<g id="node11" class="node">
<title>nd000010</title>
<polygon fill="none" stroke="black" points="6,-219.5 6,-255.5 185,-255.5 185,-219.5 6,-219.5"/>
<text text-anchor="middle" x="35.5" y="-233.8" font-family="Times,serif" font-size="14.00">[1:25]</text>
<polyline fill="none" stroke="black" points="65,-219.5 65,-255.5 "/>
<text text-anchor="middle" x="99.5" y="-233.8" font-family="Times,serif" font-size="14.00">TK_INT</text>
<polyline fill="none" stroke="black" points="134,-219.5 134,-255.5 "/>
<text text-anchor="middle" x="159.5" y="-233.8" font-family="Times,serif" font-size="14.00">&#39;292&#39;</text>
</g>
<!-- nd000009&#45;&gt;nd000010 -->
<g id="edge10" class="edge">
<title>nd000009&#45;&gt;nd000010</title>
<path fill="none" stroke="black" d="M95.5,-292.31C95.5,-284.29 95.5,-274.55 95.5,-265.57"/>
<polygon fill="black" stroke="black" points="99,-265.53 95.5,-255.53 92,-265.53 99,-265.53"/>
</g>
<!-- nd000011 -->
<g id="node12" class="node">
<title>nd000011</title>
<polygon fill="none" stroke="black" points="9.5,-146.5 9.5,-182.5 181.5,-182.5 181.5,-146.5 9.5,-146.5"/>
<text text-anchor="middle" x="39" y="-160.8" font-family="Times,serif" font-size="14.00">[1:29]</text>
<polyline fill="none" stroke="black" points="68.5,-146.5 68.5,-182.5 "/>
<text text-anchor="middle" x="109.5" y="-160.8" font-family="Times,serif" font-size="14.00">TK_STAR</text>
<polyline fill="none" stroke="black" points="150.5,-146.5 150.5,-182.5 "/>
<text text-anchor="middle" x="166" y="-160.8" font-family="Times,serif" font-size="14.00">&#39;*&#39;</text>
</g>
<!-- nd000010&#45;&gt;nd000011 -->
<g id="edge11" class="edge">
<title>nd000010&#45;&gt;nd000011</title>
<path fill="none" stroke="black" d="M95.5,-219.31C95.5,-211.29 95.5,-201.55 95.5,-192.57"/>
<polygon fill="black" stroke="black" points="99,-192.53 95.5,-182.53 92,-192.53 99,-192.53"/>
</g>
<!-- nd000012 -->
<g id="node13" class="node">
<title>nd000012</title>
<polygon fill="none" stroke="black" points="15,-73.5 15,-109.5 176,-109.5 176,-73.5 15,-73.5"/>
<text text-anchor="middle" x="44.5" y="-87.8" font-family="Times,serif" font-size="14.00">[1:31]</text>
<polyline fill="none" stroke="black" points="74,-73.5 74,-109.5 "/>
<text text-anchor="middle" x="108.5" y="-87.8" font-family="Times,serif" font-size="14.00">TK_INT</text>
<polyline fill="none" stroke="black" points="143,-73.5 143,-109.5 "/>
<text text-anchor="middle" x="159.5" y="-87.8" font-family="Times,serif" font-size="14.00">&#39;6&#39;</text>
</g>
<!-- nd000011&#45;&gt;nd000012 -->
<g id="edge12" class="edge">
<title>nd000011&#45;&gt;nd000012</title>
<path fill="none" stroke="black" d="M95.5,-146.31C95.5,-138.29 95.5,-128.55 95.5,-119.57"/>
<polygon fill="black" stroke="black" points="99,-119.53 95.5,-109.53 92,-119.53 99,-119.53"/>
</g>
<!-- nd000013 -->
<g id="node14" class="node">
<title>nd000013</title>
<polygon fill="none" stroke="black" points="0,-0.5 0,-36.5 191,-36.5 191,-0.5 0,-0.5"/>
<text text-anchor="middle" x="25" y="-14.8" font-family="Times,serif" font-size="14.00">[2:1]</text>
<polyline fill="none" stroke="black" points="50,-0.5 50,-36.5 "/>
<text text-anchor="middle" x="92.5" y="-14.8" font-family="Times,serif" font-size="14.00">TK_NULL</text>
<polyline fill="none" stroke="black" points="135,-0.5 135,-36.5 "/>
<text text-anchor="middle" x="163" y="-14.8" font-family="Times,serif" font-size="14.00">&#39;EOF&#39;</text>
</g>
<!-- nd000012&#45;&gt;nd000013 -->
<g id="edge13" class="edge">
<title>nd000012&#45;&gt;nd000013</title>
<path fill="none" stroke="black" d="M95.5,-73.31C95.5,-65.29 95.5,-55.55 95.5,-46.57"/>
<polygon fill="black" stroke="black" points="99,-46.53 95.5,-36.53 92,-46.53 99,-46.53"/>
</g>
</g>
</svg>
