<?xml version="1.0" encoding="UTF-8" standalone="no"?>
<!DOCTYPE svg PUBLIC "-//W3C//DTD SVG 1.1//EN"
 "http://www.w3.org/Graphics/SVG/1.1/DTD/svg11.dtd">
<!-- Generated by graphviz version 2.43.0 (0)
 -->
<!-- Title: AST Pages: 1 -->
<svg width="317pt" height="476pt"
 viewBox="0.00 0.00 317.00 476.00" xmlns="http://www.w3.org/2000/svg" xmlns:xlink="http://www.w3.org/1999/xlink">
<g id="graph0" class="graph" transform="scale(1 1) rotate(0) translate(4 472)">
<title>AST</title>
<polygon fill="white" stroke="transparent" points="-4,4 -4,-472 313,-472 313,4 -4,4"/>
<!-- nd000000 -->
<g id="node1" class="node">
<title>nd000000</title>
<ellipse fill="none" stroke="black" cx="27" cy="-378" rx="27" ry="18"/>
<text text-anchor="middle" x="27" y="-374.3" font-family="Times,serif" font-size="14.00">2</text>
</g>
<!-- nd000001 -->
<g id="node2" class="node">
<title>nd000001</title>
<ellipse fill="none" stroke="black" cx="63" cy="-306" rx="27" ry="18"/>
<text text-anchor="middle" x="63" y="-302.3" font-family="Times,serif" font-size="14.00">3</text>
</g>
<!-- nd000002 -->
<g id="node3" class="node">
<title>nd000002</title>
<ellipse fill="none" stroke="black" cx="99" cy="-234" rx="27" ry="18"/>
<text text-anchor="middle" x="99" y="-230.3" font-family="Times,serif" font-size="14.00">4</text>
</g>
<!-- nd000003 -->
<g id="node4" class="node">
<title>nd000003</title>
<ellipse fill="none" stroke="black" cx="134" cy="-162" rx="28.7" ry="18"/>
<text text-anchor="middle" x="134" y="-158.3" font-family="Times,serif" font-size="14.00">222</text>
</g>
<!-- nd000004 -->
<g id="node5" class="node">
<title>nd000004</title>
<ellipse fill="none" stroke="black" cx="171" cy="-90" rx="28.7" ry="18"/>
<text text-anchor="middle" x="171" y="-86.3" font-family="Times,serif" font-size="14.00">384</text>
</g>
<!-- nd000005 -->
<g id="node6" class="node">
<title>nd000005</title>
<ellipse fill="none" stroke="black" cx="208" cy="-18" rx="28.7" ry="18"/>
<text text-anchor="middle" x="208" y="-14.3" font-family="Times,serif" font-size="14.00">292</text>
</g>
<!-- nd000006 -->
<g id="node7" class="node">
<title>nd000006</title>
<ellipse fill="none" stroke="black" cx="282" cy="-18" rx="27" ry="18"/>
<text text-anchor="middle" x="282" y="-14.3" font-family="Times,serif" font-size="14.00">6</text>
</g>
<!-- nd000007 -->
<g id="node8" class="node">
<title>nd000007</title>
<ellipse fill="none" stroke="black" cx="245" cy="-90" rx="27" ry="18"/>
<text text-anchor="middle" x="245" y="-86.3" font-family="Times,serif" font-size="14.00">*</text>
</g>
<!-- nd000007&#45;&#45;nd000005 -->
<g id="edge2" class="edge">
<title>nd000007&#45;&#45;nd000005</title>
<path fill="none" stroke="black" d="M236.42,-72.76C230.53,-61.62 222.73,-46.87 216.79,-35.63"/>
</g>
<!-- nd000007&#45;&#45;nd000006 -->
<g id="edge1" class="edge">
<title>nd000007&#45;&#45;nd000006</title>
<path fill="none" stroke="black" d="M253.58,-72.76C259.56,-61.46 267.5,-46.44 273.46,-35.15"/>
</g>
<!-- nd000008 -->
<g id="node9" class="node">
<title>nd000008</title>
<ellipse fill="none" stroke="black" cx="208" cy="-162" rx="27" ry="18"/>
<text text-anchor="middle" x="208" y="-158.3" font-family="Times,serif" font-size="14.00">&#45;</text>
</g>
<!-- nd000008&#45;&#45;nd000004 -->
<g id="edge4" class="edge">
<title>nd000008&#45;&#45;nd000004</title>
<path fill="none" stroke="black" d="M199.42,-144.76C193.53,-133.62 185.73,-118.87 179.79,-107.63"/>
</g>
<!-- nd000008&#45;&#45;nd000007 -->
<g id="edge3" class="edge">
<title>nd000008&#45;&#45;nd000007</title>
<path fill="none" stroke="black" d="M216.58,-144.76C222.56,-133.46 230.5,-118.44 236.46,-107.15"/>
</g>
<!-- nd000009 -->
<g id="node10" class="node">
<title>nd000009</title>
<ellipse fill="none" stroke="black" cx="171" cy="-234" rx="27" ry="18"/>
<text text-anchor="middle" x="171" y="-230.3" font-family="Times,serif" font-size="14.00">+</text>
</g>
<!-- nd000009&#45;&#45;nd000003 -->
<g id="edge6" class="edge">
<title>nd000009&#45;&#45;nd000003</title>
<path fill="none" stroke="black" d="M162.42,-216.76C156.53,-205.62 148.73,-190.87 142.79,-179.63"/>
</g>
<!-- nd000009&#45;&#45;nd000008 -->
<g id="edge5" class="edge">
<title>nd000009&#45;&#45;nd000008</title>
<path fill="none" stroke="black" d="M179.58,-216.76C185.56,-205.46 193.5,-190.44 199.46,-179.15"/>
</g>
<!-- nd000010 -->
<g id="node11" class="node">
<title>nd000010</title>
<ellipse fill="none" stroke="black" cx="135" cy="-306" rx="27" ry="18"/>
<text text-anchor="middle" x="135" y="-302.3" font-family="Times,serif" font-size="14.00">/</text>
</g>
<!-- nd000010&#45;&#45;nd000002 -->
<g id="edge8" class="edge">
<title>nd000010&#45;&#45;nd000002</title>
<path fill="none" stroke="black" d="M126.65,-288.76C120.83,-277.46 113.11,-262.44 107.3,-251.15"/>
</g>
<!-- nd000010&#45;&#45;nd000009 -->
<g id="edge7" class="edge">
<title>nd000010&#45;&#45;nd000009</title>
<path fill="none" stroke="black" d="M143.35,-288.76C149.17,-277.46 156.89,-262.44 162.7,-251.15"/>
</g>
<!-- nd000011 -->
<g id="node12" class="node">
<title>nd000011</title>
<ellipse fill="none" stroke="black" cx="99" cy="-378" rx="27" ry="18"/>
<text text-anchor="middle" x="99" y="-374.3" font-family="Times,serif" font-size="14.00">+</text>
</g>
<!-- nd000011&#45;&#45;nd000001 -->
<g id="edge10" class="edge">
<title>nd000011&#45;&#45;nd000001</title>
<path fill="none" stroke="black" d="M90.65,-360.76C84.83,-349.46 77.11,-334.44 71.3,-323.15"/>
</g>
<!-- nd000011&#45;&#45;nd000010 -->
<g id="edge9" class="edge">
<title>nd000011&#45;&#45;nd000010</title>
<path fill="none" stroke="black" d="M107.35,-360.76C113.17,-349.46 120.89,-334.44 126.7,-323.15"/>
</g>
<!-- nd000012 -->
<g id="node13" class="node">
<title>nd000012</title>
<ellipse fill="none" stroke="black" cx="63" cy="-450" rx="27" ry="18"/>
<text text-anchor="middle" x="63" y="-446.3" font-family="Times,serif" font-size="14.00">*</text>
</g>
<!-- nd000012&#45;&#45;nd000000 -->
<g id="edge12" class="edge">
<title>nd000012&#45;&#45;nd000000</title>
<path fill="none" stroke="black" d="M54.65,-432.76C48.83,-421.46 41.11,-406.44 35.3,-395.15"/>
</g>
<!-- nd000012&#45;&#45;nd000011 -->
<g id="edge11" class="edge">
<title>nd000012&#45;&#45;nd000011</title>
<path fill="none" stroke="black" d="M71.35,-432.76C77.17,-421.46 84.89,-406.44 90.7,-395.15"/>
</g>
</g>
</svg>
