<?xml version="1.0" encoding="UTF-8" standalone="no"?>
<!DOCTYPE svg PUBLIC "-//W3C//DTD SVG 1.1//EN"
 "http://www.w3.org/Graphics/SVG/1.1/DTD/svg11.dtd">
<!-- Generated by graphviz version 2.43.0 (0)
 -->
<!-- Title: AST Pages: 1 -->
<svg width="206pt" height="260pt"
 viewBox="0.00 0.00 206.00 260.00" xmlns="http://www.w3.org/2000/svg" xmlns:xlink="http://www.w3.org/1999/xlink">
<g id="graph0" class="graph" transform="scale(1 1) rotate(0) translate(4 256)">
<title>AST</title>
<polygon fill="white" stroke="transparent" points="-4,4 -4,-256 202,-256 202,4 -4,4"/>
<!-- nd000000 -->
<g id="node1" class="node">
<title>nd000000</title>
<ellipse fill="none" stroke="black" cx="27" cy="-162" rx="27" ry="18"/>
<text text-anchor="middle" x="27" y="-158.3" font-family="Times,serif" font-size="14.00">2</text>
</g>
<!-- nd000001 -->
<g id="node2" class="node">
<title>nd000001</title>
<ellipse fill="none" stroke="black" cx="63" cy="-90" rx="27" ry="18"/>
<text text-anchor="middle" x="63" y="-86.3" font-family="Times,serif" font-size="14.00">10</text>
</g>
<!-- nd000002 -->
<g id="node3" class="node">
<title>nd000002</title>
<ellipse fill="none" stroke="black" cx="99" cy="-18" rx="27" ry="18"/>
<text text-anchor="middle" x="99" y="-14.3" font-family="Times,serif" font-size="14.00">9</text>
</g>
<!-- nd000003 -->
<g id="node4" class="node">
<title>nd000003</title>
<ellipse fill="none" stroke="black" cx="171" cy="-18" rx="27" ry="18"/>
<text text-anchor="middle" x="171" y="-14.3" font-family="Times,serif" font-size="14.00">3</text>
</g>
<!-- nd000004 -->
<g id="node5" class="node">
<title>nd000004</title>
<ellipse fill="none" stroke="black" cx="135" cy="-90" rx="27" ry="18"/>
<text text-anchor="middle" x="135" y="-86.3" font-family="Times,serif" font-size="14.00">*</text>
</g>
<!-- nd000004&#45;&#45;nd000002 -->
<g id="edge2" class="edge">
<title>nd000004&#45;&#45;nd000002</title>
<path fill="none" stroke="black" d="M126.65,-72.76C120.83,-61.46 113.11,-46.44 107.3,-35.15"/>
</g>
<!-- nd000004&#45;&#45;nd000003 -->
<g id="edge1" class="edge">
<title>nd000004&#45;&#45;nd000003</title>
<path fill="none" stroke="black" d="M143.35,-72.76C149.17,-61.46 156.89,-46.44 162.7,-35.15"/>
</g>
<!-- nd000005 -->
<g id="node6" class="node">
<title>nd000005</title>
<ellipse fill="none" stroke="black" cx="99" cy="-162" rx="27" ry="18"/>
<text text-anchor="middle" x="99" y="-158.3" font-family="Times,serif" font-size="14.00">&#45;</text>
</g>
<!-- nd000005&#45;&#45;nd000001 -->
<g id="edge4" class="edge">
<title>nd000005&#45;&#45;nd000001</title>
<path fill="none" stroke="black" d="M90.65,-144.76C84.83,-133.46 77.11,-118.44 71.3,-107.15"/>
</g>
<!-- nd000005&#45;&#45;nd000004 -->
<g id="edge3" class="edge">
<title>nd000005&#45;&#45;nd000004</title>
<path fill="none" stroke="black" d="M107.35,-144.76C113.17,-133.46 120.89,-118.44 126.7,-107.15"/>
</g>
<!-- nd000006 -->
<g id="node7" class="node">
<title>nd000006</title>
<ellipse fill="none" stroke="black" cx="63" cy="-234" rx="27" ry="18"/>
<text text-anchor="middle" x="63" y="-230.3" font-family="Times,serif" font-size="14.00">+</text>
</g>
<!-- nd000006&#45;&#45;nd000000 -->
<g id="edge6" class="edge">
<title>nd000006&#45;&#45;nd000000</title>
<path fill="none" stroke="black" d="M54.65,-216.76C48.83,-205.46 41.11,-190.44 35.3,-179.15"/>
</g>
<!-- nd000006&#45;&#45;nd000005 -->
<g id="edge5" class="edge">
<title>nd000006&#45;&#45;nd000005</title>
<path fill="none" stroke="black" d="M71.35,-216.76C77.17,-205.46 84.89,-190.44 90.7,-179.15"/>
</g>
</g>
</svg>
