<?xml version="1.0" encoding="UTF-8" standalone="no"?>
<!DOCTYPE svg PUBLIC "-//W3C//DTD SVG 1.1//EN"
 "http://www.w3.org/Graphics/SVG/1.1/DTD/svg11.dtd">
<!-- Generated by graphviz version 2.43.0 (0)
 -->
<!-- Title: AST Pages: 1 -->
<svg width="314pt" height="260pt"
 viewBox="0.00 0.00 314.00 260.00" xmlns="http://www.w3.org/2000/svg" xmlns:xlink="http://www.w3.org/1999/xlink">
<g id="graph0" class="graph" transform="scale(1 1) rotate(0) translate(4 256)">
<title>AST</title>
<polygon fill="white" stroke="transparent" points="-4,4 -4,-256 310,-256 310,4 -4,4"/>
<!-- nd000000 -->
<g id="node1" class="node">
<title>nd000000</title>
<ellipse fill="none" stroke="black" cx="27" cy="-18" rx="27" ry="18"/>
<text text-anchor="middle" x="27" y="-14.3" font-family="Times,serif" font-size="14.00">10</text>
</g>
<!-- nd000001 -->
<g id="node2" class="node">
<title>nd000001</title>
<ellipse fill="none" stroke="black" cx="99" cy="-18" rx="27" ry="18"/>
<text text-anchor="middle" x="99" y="-14.3" font-family="Times,serif" font-size="14.00">10</text>
</g>
<!-- nd000002 -->
<g id="node3" class="node">
<title>nd000002</title>
<ellipse fill="none" stroke="black" cx="63" cy="-90" rx="27" ry="18"/>
<text text-anchor="middle" x="63" y="-86.3" font-family="Times,serif" font-size="14.00">*</text>
</g>
<!-- nd000002&#45;&#45;nd000000 -->
<g id="edge2" class="edge">
<title>nd000002&#45;&#45;nd000000</title>
<path fill="none" stroke="black" d="M54.65,-72.76C48.83,-61.46 41.11,-46.44 35.3,-35.15"/>
</g>
<!-- nd000002&#45;&#45;nd000001 -->
<g id="edge1" class="edge">
<title>nd000002&#45;&#45;nd000001</title>
<path fill="none" stroke="black" d="M71.35,-72.76C77.17,-61.46 84.89,-46.44 90.7,-35.15"/>
</g>
<!-- nd000003 -->
<g id="node4" class="node">
<title>nd000003</title>
<ellipse fill="none" stroke="black" cx="135" cy="-90" rx="27" ry="18"/>
<text text-anchor="middle" x="135" y="-86.3" font-family="Times,serif" font-size="14.00">4</text>
</g>
<!-- nd000004 -->
<g id="node5" class="node">
<title>nd000004</title>
<ellipse fill="none" stroke="black" cx="135" cy="-162" rx="27" ry="18"/>
<text text-anchor="middle" x="135" y="-158.3" font-family="Times,serif" font-size="14.00">&#45;</text>
</g>
<!-- nd000004&#45;&#45;nd000002 -->
<g id="edge4" class="edge">
<title>nd000004&#45;&#45;nd000002</title>
<path fill="none" stroke="black" d="M120.43,-146.83C108.02,-134.77 90.27,-117.51 77.8,-105.38"/>
</g>
<!-- nd000004&#45;&#45;nd000003 -->
<g id="edge3" class="edge">
<title>nd000004&#45;&#45;nd000003</title>
<path fill="none" stroke="black" d="M135,-143.7C135,-132.85 135,-118.92 135,-108.1"/>
</g>
<!-- nd000005 -->
<g id="node6" class="node">
<title>nd000005</title>
<ellipse fill="none" stroke="black" cx="189" cy="-18" rx="27" ry="18"/>
<text text-anchor="middle" x="189" y="-14.3" font-family="Times,serif" font-size="14.00">3</text>
</g>
<!-- nd000006 -->
<g id="node7" class="node">
<title>nd000006</title>
<ellipse fill="none" stroke="black" cx="261" cy="-18" rx="27" ry="18"/>
<text text-anchor="middle" x="261" y="-14.3" font-family="Times,serif" font-size="14.00">2</text>
</g>
<!-- nd000007 -->
<g id="node8" class="node">
<title>nd000007</title>
<ellipse fill="none" stroke="black" cx="207" cy="-90" rx="27" ry="18"/>
<text text-anchor="middle" x="207" y="-86.3" font-family="Times,serif" font-size="14.00">*</text>
</g>
<!-- nd000007&#45;&#45;nd000005 -->
<g id="edge6" class="edge">
<title>nd000007&#45;&#45;nd000005</title>
<path fill="none" stroke="black" d="M202.64,-72.05C199.81,-61.05 196.14,-46.76 193.32,-35.79"/>
</g>
<!-- nd000007&#45;&#45;nd000006 -->
<g id="edge5" class="edge">
<title>nd000007&#45;&#45;nd000006</title>
<path fill="none" stroke="black" d="M218.98,-73.46C227.93,-61.86 240.11,-46.08 249.05,-34.49"/>
</g>
<!-- nd000008 -->
<g id="node9" class="node">
<title>nd000008</title>
<ellipse fill="none" stroke="black" cx="279" cy="-90" rx="27" ry="18"/>
<text text-anchor="middle" x="279" y="-86.3" font-family="Times,serif" font-size="14.00">2</text>
</g>
<!-- nd000009 -->
<g id="node10" class="node">
<title>nd000009</title>
<ellipse fill="none" stroke="black" cx="207" cy="-162" rx="27" ry="18"/>
<text text-anchor="middle" x="207" y="-158.3" font-family="Times,serif" font-size="14.00">/</text>
</g>
<!-- nd000009&#45;&#45;nd000007 -->
<g id="edge8" class="edge">
<title>nd000009&#45;&#45;nd000007</title>
<path fill="none" stroke="black" d="M207,-143.7C207,-132.85 207,-118.92 207,-108.1"/>
</g>
<!-- nd000009&#45;&#45;nd000008 -->
<g id="edge7" class="edge">
<title>nd000009&#45;&#45;nd000008</title>
<path fill="none" stroke="black" d="M221.57,-146.83C233.98,-134.77 251.73,-117.51 264.2,-105.38"/>
</g>
<!-- nd000010 -->
<g id="node11" class="node">
<title>nd000010</title>
<ellipse fill="none" stroke="black" cx="171" cy="-234" rx="27" ry="18"/>
<text text-anchor="middle" x="171" y="-230.3" font-family="Times,serif" font-size="14.00">+</text>
</g>
<!-- nd000010&#45;&#45;nd000004 -->
<g id="edge10" class="edge">
<title>nd000010&#45;&#45;nd000004</title>
<path fill="none" stroke="black" d="M162.65,-216.76C156.83,-205.46 149.11,-190.44 143.3,-179.15"/>
</g>
<!-- nd000010&#45;&#45;nd000009 -->
<g id="edge9" class="edge">
<title>nd000010&#45;&#45;nd000009</title>
<path fill="none" stroke="black" d="M179.35,-216.76C185.17,-205.46 192.89,-190.44 198.7,-179.15"/>
</g>
</g>
</svg>
