<?xml version="1.0" encoding="UTF-8" standalone="no"?>
<!DOCTYPE svg PUBLIC "-//W3C//DTD SVG 1.1//EN"
 "http://www.w3.org/Graphics/SVG/1.1/DTD/svg11.dtd">
<!-- Generated by graphviz version 2.43.0 (0)
 -->
<!-- Title: TOKENS Pages: 1 -->
<svg width="220pt" height="848pt"
 viewBox="0.00 0.00 220.00 848.00" xmlns="http://www.w3.org/2000/svg" xmlns:xlink="http://www.w3.org/1999/xlink">
<g id="graph0" class="graph" transform="scale(1 1) rotate(0) translate(4 844)">
<title>TOKENS</title>
<polygon fill="white" stroke="transparent" points="-4,4 -4,-844 216,-844 216,4 -4,4"/>
<!-- nd000000 -->
<g id="node1" class="node">
<title>nd000000</title>
<polygon fill="none" stroke="black" points="15,-803.5 15,-839.5 197,-839.5 197,-803.5 15,-803.5"/>
<text text-anchor="middle" x="50.5" y="-817.8" font-family="Times,serif" font-size="14.00">000000</text>
<polyline fill="none" stroke="black" points="86,-803.5 86,-839.5 "/>
<text text-anchor="middle" x="120.5" y="-817.8" font-family="Times,serif" font-size="14.00">TK_INT</text>
<polyline fill="none" stroke="black" points="155,-803.5 155,-839.5 "/>
<text text-anchor="middle" x="176" y="-817.8" font-family="Times,serif" font-size="14.00">&#39;10&#39;</text>
</g>
<!-- nd000001 -->
<g id="node2" class="node">
<title>nd000001</title>
<polygon fill="none" stroke="black" points="12.5,-730.5 12.5,-766.5 199.5,-766.5 199.5,-730.5 12.5,-730.5"/>
<text text-anchor="middle" x="48" y="-744.8" font-family="Times,serif" font-size="14.00">000001</text>
<polyline fill="none" stroke="black" points="83.5,-730.5 83.5,-766.5 "/>
<text text-anchor="middle" x="126" y="-744.8" font-family="Times,serif" font-size="14.00">TK_NULL</text>
<polyline fill="none" stroke="black" points="168.5,-730.5 168.5,-766.5 "/>
<text text-anchor="middle" x="184" y="-744.8" font-family="Times,serif" font-size="14.00">&#39;*&#39;</text>
</g>
<!-- nd000000&#45;&gt;nd000001 -->
<g id="edge1" class="edge">
<title>nd000000&#45;&gt;nd000001</title>
<path fill="none" stroke="black" d="M106,-803.31C106,-795.29 106,-785.55 106,-776.57"/>
<polygon fill="black" stroke="black" points="109.5,-776.53 106,-766.53 102.5,-776.53 109.5,-776.53"/>
</g>
<!-- nd000002 -->
<g id="node3" class="node">
<title>nd000002</title>
<polygon fill="none" stroke="black" points="15,-657.5 15,-693.5 197,-693.5 197,-657.5 15,-657.5"/>
<text text-anchor="middle" x="50.5" y="-671.8" font-family="Times,serif" font-size="14.00">000002</text>
<polyline fill="none" stroke="black" points="86,-657.5 86,-693.5 "/>
<text text-anchor="middle" x="120.5" y="-671.8" font-family="Times,serif" font-size="14.00">TK_INT</text>
<polyline fill="none" stroke="black" points="155,-657.5 155,-693.5 "/>
<text text-anchor="middle" x="176" y="-671.8" font-family="Times,serif" font-size="14.00">&#39;10&#39;</text>
</g>
<!-- nd000001&#45;&gt;nd000002 -->
<g id="edge2" class="edge">
<title>nd000001&#45;&gt;nd000002</title>
<path fill="none" stroke="black" d="M106,-730.31C106,-722.29 106,-712.55 106,-703.57"/>
<polygon fill="black" stroke="black" points="109.5,-703.53 106,-693.53 102.5,-703.53 109.5,-703.53"/>
</g>
<!-- nd000003 -->
<g id="node4" class="node">
<title>nd000003</title>
<polygon fill="none" stroke="black" points="8,-584.5 8,-620.5 204,-620.5 204,-584.5 8,-584.5"/>
<text text-anchor="middle" x="43.5" y="-598.8" font-family="Times,serif" font-size="14.00">000003</text>
<polyline fill="none" stroke="black" points="79,-584.5 79,-620.5 "/>
<text text-anchor="middle" x="127" y="-598.8" font-family="Times,serif" font-size="14.00">TK_MINUS</text>
<polyline fill="none" stroke="black" points="175,-584.5 175,-620.5 "/>
<text text-anchor="middle" x="189.5" y="-598.8" font-family="Times,serif" font-size="14.00">&#39;&#45;&#39;</text>
</g>
<!-- nd000002&#45;&gt;nd000003 -->
<g id="edge3" class="edge">
<title>nd000002&#45;&gt;nd000003</title>
<path fill="none" stroke="black" d="M106,-657.31C106,-649.29 106,-639.55 106,-630.57"/>
<polygon fill="black" stroke="black" points="109.5,-630.53 106,-620.53 102.5,-630.53 109.5,-630.53"/>
</g>
<!-- nd000004 -->
<g id="node5" class="node">
<title>nd000004</title>
<polygon fill="none" stroke="black" points="19.5,-511.5 19.5,-547.5 192.5,-547.5 192.5,-511.5 19.5,-511.5"/>
<text text-anchor="middle" x="55" y="-525.8" font-family="Times,serif" font-size="14.00">000004</text>
<polyline fill="none" stroke="black" points="90.5,-511.5 90.5,-547.5 "/>
<text text-anchor="middle" x="125" y="-525.8" font-family="Times,serif" font-size="14.00">TK_INT</text>
<polyline fill="none" stroke="black" points="159.5,-511.5 159.5,-547.5 "/>
<text text-anchor="middle" x="176" y="-525.8" font-family="Times,serif" font-size="14.00">&#39;4&#39;</text>
</g>
<!-- nd000003&#45;&gt;nd000004 -->
<g id="edge4" class="edge">
<title>nd000003&#45;&gt;nd000004</title>
<path fill="none" stroke="black" d="M106,-584.31C106,-576.29 106,-566.55 106,-557.57"/>
<polygon fill="black" stroke="black" points="109.5,-557.53 106,-547.53 102.5,-557.53 109.5,-557.53"/>
</g>
<!-- nd000005 -->
<g id="node6" class="node">
<title>nd000005</title>
<polygon fill="none" stroke="black" points="11,-438.5 11,-474.5 201,-474.5 201,-438.5 11,-438.5"/>
<text text-anchor="middle" x="46.5" y="-452.8" font-family="Times,serif" font-size="14.00">000005</text>
<polyline fill="none" stroke="black" points="82,-438.5 82,-474.5 "/>
<text text-anchor="middle" x="123.5" y="-452.8" font-family="Times,serif" font-size="14.00">TK_PLUS</text>
<polyline fill="none" stroke="black" points="165,-438.5 165,-474.5 "/>
<text text-anchor="middle" x="183" y="-452.8" font-family="Times,serif" font-size="14.00">&#39;+&#39;</text>
</g>
<!-- nd000004&#45;&gt;nd000005 -->
<g id="edge5" class="edge">
<title>nd000004&#45;&gt;nd000005</title>
<path fill="none" stroke="black" d="M106,-511.31C106,-503.29 106,-493.55 106,-484.57"/>
<polygon fill="black" stroke="black" points="109.5,-484.53 106,-474.53 102.5,-484.53 109.5,-484.53"/>
</g>
<!-- nd000006 -->
<g id="node7" class="node">
<title>nd000006</title>
<polygon fill="none" stroke="black" points="19.5,-365.5 19.5,-401.5 192.5,-401.5 192.5,-365.5 19.5,-365.5"/>
<text text-anchor="middle" x="55" y="-379.8" font-family="Times,serif" font-size="14.00">000006</text>
<polyline fill="none" stroke="black" points="90.5,-365.5 90.5,-401.5 "/>
<text text-anchor="middle" x="125" y="-379.8" font-family="Times,serif" font-size="14.00">TK_INT</text>
<polyline fill="none" stroke="black" points="159.5,-365.5 159.5,-401.5 "/>
<text text-anchor="middle" x="176" y="-379.8" font-family="Times,serif" font-size="14.00">&#39;3&#39;</text>
</g>
<!-- nd000005&#45;&gt;nd000006 -->
<g id="edge6" class="edge">
<title>nd000005&#45;&gt;nd000006</title>
<path fill="none" stroke="black" d="M106,-438.31C106,-430.29 106,-420.55 106,-411.57"/>
<polygon fill="black" stroke="black" points="109.5,-411.53 106,-401.53 102.5,-411.53 109.5,-411.53"/>
</g>
<!-- nd000007 -->
<g id="node8" class="node">
<title>nd000007</title>
<polygon fill="none" stroke="black" points="12.5,-292.5 12.5,-328.5 199.5,-328.5 199.5,-292.5 12.5,-292.5"/>
<text text-anchor="middle" x="48" y="-306.8" font-family="Times,serif" font-size="14.00">000007</text>
<polyline fill="none" stroke="black" points="83.5,-292.5 83.5,-328.5 "/>
<text text-anchor="middle" x="126" y="-306.8" font-family="Times,serif" font-size="14.00">TK_NULL</text>
<polyline fill="none" stroke="black" points="168.5,-292.5 168.5,-328.5 "/>
<text text-anchor="middle" x="184" y="-306.8" font-family="Times,serif" font-size="14.00">&#39;*&#39;</text>
</g>
<!-- nd000006&#45;&gt;nd000007 -->
<g id="edge7" class="edge">
<title>nd000006&#45;&gt;nd000007</title>
<path fill="none" stroke="black" d="M106,-365.31C106,-357.29 106,-347.55 106,-338.57"/>
<polygon fill="black" stroke="black" points="109.5,-338.53 106,-328.53 102.5,-338.53 109.5,-338.53"/>
</g>
<!-- nd000008 -->
<g id="node9" class="node">
<title>nd000008</title>
<polygon fill="none" stroke="black" points="19.5,-219.5 19.5,-255.5 192.5,-255.5 192.5,-219.5 19.5,-219.5"/>
<text text-anchor="middle" x="55" y="-233.8" font-family="Times,serif" font-size="14.00">000008</text>
<polyline fill="none" stroke="black" points="90.5,-219.5 90.5,-255.5 "/>
<text text-anchor="middle" x="125" y="-233.8" font-family="Times,serif" font-size="14.00">TK_INT</text>
<polyline fill="none" stroke="black" points="159.5,-219.5 159.5,-255.5 "/>
<text text-anchor="middle" x="176" y="-233.8" font-family="Times,serif" font-size="14.00">&#39;2&#39;</text>
</g>
<!-- nd000007&#45;&gt;nd000008 -->
<g id="edge8" class="edge">
<title>nd000007&#45;&gt;nd000008</title>
<path fill="none" stroke="black" d="M106,-292.31C106,-284.29 106,-274.55 106,-265.57"/>
<polygon fill="black" stroke="black" points="109.5,-265.53 106,-255.53 102.5,-265.53 109.5,-265.53"/>
</g>
<!-- nd000009 -->
<g id="node10" class="node">
<title>nd000009</title>
<polygon fill="none" stroke="black" points="13.5,-146.5 13.5,-182.5 198.5,-182.5 198.5,-146.5 13.5,-146.5"/>
<text text-anchor="middle" x="49" y="-160.8" font-family="Times,serif" font-size="14.00">000009</text>
<polyline fill="none" stroke="black" points="84.5,-146.5 84.5,-182.5 "/>
<text text-anchor="middle" x="127" y="-160.8" font-family="Times,serif" font-size="14.00">TK_NULL</text>
<polyline fill="none" stroke="black" points="169.5,-146.5 169.5,-182.5 "/>
<text text-anchor="middle" x="184" y="-160.8" font-family="Times,serif" font-size="14.00">&#39;/&#39;</text>
</g>
<!-- nd000008&#45;&gt;nd000009 -->
<g id="edge9" class="edge">
<title>nd000008&#45;&gt;nd000009</title>
<path fill="none" stroke="black" d="M106,-219.31C106,-211.29 106,-201.55 106,-192.57"/>
<polygon fill="black" stroke="black" points="109.5,-192.53 106,-182.53 102.5,-192.53 109.5,-192.53"/>
</g>
<!-- nd000010 -->
<g id="node11" class="node">
<title>nd000010</title>
<polygon fill="none" stroke="black" points="19.5,-73.5 19.5,-109.5 192.5,-109.5 192.5,-73.5 19.5,-73.5"/>
<text text-anchor="middle" x="55" y="-87.8" font-family="Times,serif" font-size="14.00">000010</text>
<polyline fill="none" stroke="black" points="90.5,-73.5 90.5,-109.5 "/>
<text text-anchor="middle" x="125" y="-87.8" font-family="Times,serif" font-size="14.00">TK_INT</text>
<polyline fill="none" stroke="black" points="159.5,-73.5 159.5,-109.5 "/>
<text text-anchor="middle" x="176" y="-87.8" font-family="Times,serif" font-size="14.00">&#39;2&#39;</text>
</g>
<!-- nd000009&#45;&gt;nd000010 -->
<g id="edge10" class="edge">
<title>nd000009&#45;&gt;nd000010</title>
<path fill="none" stroke="black" d="M106,-146.31C106,-138.29 106,-128.55 106,-119.57"/>
<polygon fill="black" stroke="black" points="109.5,-119.53 106,-109.53 102.5,-119.53 109.5,-119.53"/>
</g>
<!-- nd000011 -->
<g id="node12" class="node">
<title>nd000011</title>
<polygon fill="none" stroke="black" points="0,-0.5 0,-36.5 212,-36.5 212,-0.5 0,-0.5"/>
<text text-anchor="middle" x="35.5" y="-14.8" font-family="Times,serif" font-size="14.00">000011</text>
<polyline fill="none" stroke="black" points="71,-0.5 71,-36.5 "/>
<text text-anchor="middle" x="113.5" y="-14.8" font-family="Times,serif" font-size="14.00">TK_NULL</text>
<polyline fill="none" stroke="black" points="156,-0.5 156,-36.5 "/>
<text text-anchor="middle" x="184" y="-14.8" font-family="Times,serif" font-size="14.00">&#39;EOF&#39;</text>
</g>
<!-- nd000010&#45;&gt;nd000011 -->
<g id="edge11" class="edge">
<title>nd000010&#45;&gt;nd000011</title>
<path fill="none" stroke="black" d="M106,-73.31C106,-65.29 106,-55.55 106,-46.57"/>
<polygon fill="black" stroke="black" points="109.5,-46.53 106,-36.53 102.5,-46.53 109.5,-46.53"/>
</g>
</g>
</svg>
