<?xml version="1.0" encoding="UTF-8" standalone="no"?>
<!DOCTYPE svg PUBLIC "-//W3C//DTD SVG 1.1//EN"
 "http://www.w3.org/Graphics/SVG/1.1/DTD/svg11.dtd">
<!-- Generated by graphviz version 2.43.0 (0)
 -->
<!-- Title: TOKENS Pages: 1 -->
<svg width="199pt" height="848pt"
 viewBox="0.00 0.00 199.00 848.00" xmlns="http://www.w3.org/2000/svg" xmlns:xlink="http://www.w3.org/1999/xlink">
<g id="graph0" class="graph" transform="scale(1 1) rotate(0) translate(4 844)">
<title>TOKENS</title>
<polygon fill="white" stroke="transparent" points="-4,4 -4,-844 195,-844 195,4 -4,4"/>
<!-- nd000000 -->
<g id="node1" class="node">
<title>nd000000</title>
<polygon fill="none" stroke="black" points="15,-803.5 15,-839.5 176,-839.5 176,-803.5 15,-803.5"/>
<text text-anchor="middle" x="40" y="-817.8" font-family="Times,serif" font-size="14.00">[1:1]</text>
<polyline fill="none" stroke="black" points="65,-803.5 65,-839.5 "/>
<text text-anchor="middle" x="99.5" y="-817.8" font-family="Times,serif" font-size="14.00">TK_INT</text>
<polyline fill="none" stroke="black" points="134,-803.5 134,-839.5 "/>
<text text-anchor="middle" x="155" y="-817.8" font-family="Times,serif" font-size="14.00">&#39;10&#39;</text>
</g>
<!-- nd000001 -->
<g id="node2" class="node">
<title>nd000001</title>
<polygon fill="none" stroke="black" points="14,-730.5 14,-766.5 177,-766.5 177,-730.5 14,-730.5"/>
<text text-anchor="middle" x="39" y="-744.8" font-family="Times,serif" font-size="14.00">[1:4]</text>
<polyline fill="none" stroke="black" points="64,-730.5 64,-766.5 "/>
<text text-anchor="middle" x="105" y="-744.8" font-family="Times,serif" font-size="14.00">TK_STAR</text>
<polyline fill="none" stroke="black" points="146,-730.5 146,-766.5 "/>
<text text-anchor="middle" x="161.5" y="-744.8" font-family="Times,serif" font-size="14.00">&#39;*&#39;</text>
</g>
<!-- nd000000&#45;&gt;nd000001 -->
<g id="edge1" class="edge">
<title>nd000000&#45;&gt;nd000001</title>
<path fill="none" stroke="black" d="M95.5,-803.31C95.5,-795.29 95.5,-785.55 95.5,-776.57"/>
<polygon fill="black" stroke="black" points="99,-776.53 95.5,-766.53 92,-776.53 99,-776.53"/>
</g>
<!-- nd000002 -->
<g id="node3" class="node">
<title>nd000002</title>
<polygon fill="none" stroke="black" points="15,-657.5 15,-693.5 176,-693.5 176,-657.5 15,-657.5"/>
<text text-anchor="middle" x="40" y="-671.8" font-family="Times,serif" font-size="14.00">[1:6]</text>
<polyline fill="none" stroke="black" points="65,-657.5 65,-693.5 "/>
<text text-anchor="middle" x="99.5" y="-671.8" font-family="Times,serif" font-size="14.00">TK_INT</text>
<polyline fill="none" stroke="black" points="134,-657.5 134,-693.5 "/>
<text text-anchor="middle" x="155" y="-671.8" font-family="Times,serif" font-size="14.00">&#39;10&#39;</text>
</g>
<!-- nd000001&#45;&gt;nd000002 -->
<g id="edge2" class="edge">
<title>nd000001&#45;&gt;nd000002</title>
<path fill="none" stroke="black" d="M95.5,-730.31C95.5,-722.29 95.5,-712.55 95.5,-703.57"/>
<polygon fill="black" stroke="black" points="99,-703.53 95.5,-693.53 92,-703.53 99,-703.53"/>
</g>
<!-- nd000003 -->
<g id="node4" class="node">
<title>nd000003</title>
<polygon fill="none" stroke="black" points="8,-584.5 8,-620.5 183,-620.5 183,-584.5 8,-584.5"/>
<text text-anchor="middle" x="33" y="-598.8" font-family="Times,serif" font-size="14.00">[1:9]</text>
<polyline fill="none" stroke="black" points="58,-584.5 58,-620.5 "/>
<text text-anchor="middle" x="106" y="-598.8" font-family="Times,serif" font-size="14.00">TK_MINUS</text>
<polyline fill="none" stroke="black" points="154,-584.5 154,-620.5 "/>
<text text-anchor="middle" x="168.5" y="-598.8" font-family="Times,serif" font-size="14.00">&#39;&#45;&#39;</text>
</g>
<!-- nd000002&#45;&gt;nd000003 -->
<g id="edge3" class="edge">
<title>nd000002&#45;&gt;nd000003</title>
<path fill="none" stroke="black" d="M95.5,-657.31C95.5,-649.29 95.5,-639.55 95.5,-630.57"/>
<polygon fill="black" stroke="black" points="99,-630.53 95.5,-620.53 92,-630.53 99,-630.53"/>
</g>
<!-- nd000004 -->
<g id="node5" class="node">
<title>nd000004</title>
<polygon fill="none" stroke="black" points="15,-511.5 15,-547.5 176,-547.5 176,-511.5 15,-511.5"/>
<text text-anchor="middle" x="44.5" y="-525.8" font-family="Times,serif" font-size="14.00">[1:11]</text>
<polyline fill="none" stroke="black" points="74,-511.5 74,-547.5 "/>
<text text-anchor="middle" x="108.5" y="-525.8" font-family="Times,serif" font-size="14.00">TK_INT</text>
<polyline fill="none" stroke="black" points="143,-511.5 143,-547.5 "/>
<text text-anchor="middle" x="159.5" y="-525.8" font-family="Times,serif" font-size="14.00">&#39;4&#39;</text>
</g>
<!-- nd000003&#45;&gt;nd000004 -->
<g id="edge4" class="edge">
<title>nd000003&#45;&gt;nd000004</title>
<path fill="none" stroke="black" d="M95.5,-584.31C95.5,-576.29 95.5,-566.55 95.5,-557.57"/>
<polygon fill="black" stroke="black" points="99,-557.53 95.5,-547.53 92,-557.53 99,-557.53"/>
</g>
<!-- nd000005 -->
<g id="node6" class="node">
<title>nd000005</title>
<polygon fill="none" stroke="black" points="6.5,-438.5 6.5,-474.5 184.5,-474.5 184.5,-438.5 6.5,-438.5"/>
<text text-anchor="middle" x="36" y="-452.8" font-family="Times,serif" font-size="14.00">[1:13]</text>
<polyline fill="none" stroke="black" points="65.5,-438.5 65.5,-474.5 "/>
<text text-anchor="middle" x="107" y="-452.8" font-family="Times,serif" font-size="14.00">TK_PLUS</text>
<polyline fill="none" stroke="black" points="148.5,-438.5 148.5,-474.5 "/>
<text text-anchor="middle" x="166.5" y="-452.8" font-family="Times,serif" font-size="14.00">&#39;+&#39;</text>
</g>
<!-- nd000004&#45;&gt;nd000005 -->
<g id="edge5" class="edge">
<title>nd000004&#45;&gt;nd000005</title>
<path fill="none" stroke="black" d="M95.5,-511.31C95.5,-503.29 95.5,-493.55 95.5,-484.57"/>
<polygon fill="black" stroke="black" points="99,-484.53 95.5,-474.53 92,-484.53 99,-484.53"/>
</g>
<!-- nd000006 -->
<g id="node7" class="node">
<title>nd000006</title>
<polygon fill="none" stroke="black" points="15,-365.5 15,-401.5 176,-401.5 176,-365.5 15,-365.5"/>
<text text-anchor="middle" x="44.5" y="-379.8" font-family="Times,serif" font-size="14.00">[1:15]</text>
<polyline fill="none" stroke="black" points="74,-365.5 74,-401.5 "/>
<text text-anchor="middle" x="108.5" y="-379.8" font-family="Times,serif" font-size="14.00">TK_INT</text>
<polyline fill="none" stroke="black" points="143,-365.5 143,-401.5 "/>
<text text-anchor="middle" x="159.5" y="-379.8" font-family="Times,serif" font-size="14.00">&#39;3&#39;</text>
</g>
<!-- nd000005&#45;&gt;nd000006 -->
<g id="edge6" class="edge">
<title>nd000005&#45;&gt;nd000006</title>
<path fill="none" stroke="black" d="M95.5,-438.31C95.5,-430.29 95.5,-420.55 95.5,-411.57"/>
<polygon fill="black" stroke="black" points="99,-411.53 95.5,-401.53 92,-411.53 99,-411.53"/>
</g>
<!-- nd000007 -->
<g id="node8" class="node">
<title>nd000007</title>
<polygon fill="none" stroke="black" points="9.5,-292.5 9.5,-328.5 181.5,-328.5 181.5,-292.5 9.5,-292.5"/>
<text text-anchor="middle" x="39" y="-306.8" font-family="Times,serif" font-size="14.00">[1:17]</text>
<polyline fill="none" stroke="black" points="68.5,-292.5 68.5,-328.5 "/>
<text text-anchor="middle" x="109.5" y="-306.8" font-family="Times,serif" font-size="14.00">TK_STAR</text>
<polyline fill="none" stroke="black" points="150.5,-292.5 150.5,-328.5 "/>
<text text-anchor="middle" x="166" y="-306.8" font-family="Times,serif" font-size="14.00">&#39;*&#39;</text>
</g>
<!-- nd000006&#45;&gt;nd000007 -->
<g id="edge7" class="edge">
<title>nd000006&#45;&gt;nd000007</title>
<path fill="none" stroke="black" d="M95.5,-365.31C95.5,-357.29 95.5,-347.55 95.5,-338.57"/>
<polygon fill="black" stroke="black" points="99,-338.53 95.5,-328.53 92,-338.53 99,-338.53"/>
</g>
<!-- nd000008 -->
<g id="node9" class="node">
<title>nd000008</title>
<polygon fill="none" stroke="black" points="15,-219.5 15,-255.5 176,-255.5 176,-219.5 15,-219.5"/>
<text text-anchor="middle" x="44.5" y="-233.8" font-family="Times,serif" font-size="14.00">[1:19]</text>
<polyline fill="none" stroke="black" points="74,-219.5 74,-255.5 "/>
<text text-anchor="middle" x="108.5" y="-233.8" font-family="Times,serif" font-size="14.00">TK_INT</text>
<polyline fill="none" stroke="black" points="143,-219.5 143,-255.5 "/>
<text text-anchor="middle" x="159.5" y="-233.8" font-family="Times,serif" font-size="14.00">&#39;2&#39;</text>
</g>
<!-- nd000007&#45;&gt;nd000008 -->
<g id="edge8" class="edge">
<title>nd000007&#45;&gt;nd000008</title>
<path fill="none" stroke="black" d="M95.5,-292.31C95.5,-284.29 95.5,-274.55 95.5,-265.57"/>
<polygon fill="black" stroke="black" points="99,-265.53 95.5,-255.53 92,-265.53 99,-265.53"/>
</g>
<!-- nd000009 -->
<g id="node10" class="node">
<title>nd000009</title>
<polygon fill="none" stroke="black" points="5,-146.5 5,-182.5 186,-182.5 186,-146.5 5,-146.5"/>
<text text-anchor="middle" x="34.5" y="-160.8" font-family="Times,serif" font-size="14.00">[1:21]</text>
<polyline fill="none" stroke="black" points="64,-146.5 64,-182.5 "/>
<text text-anchor="middle" x="110.5" y="-160.8" font-family="Times,serif" font-size="14.00">TK_SLASH</text>
<polyline fill="none" stroke="black" points="157,-146.5 157,-182.5 "/>
<text text-anchor="middle" x="171.5" y="-160.8" font-family="Times,serif" font-size="14.00">&#39;/&#39;</text>
</g>
<!-- nd000008&#45;&gt;nd000009 -->
<g id="edge9" class="edge">
<title>nd000008&#45;&gt;nd000009</title>
<path fill="none" stroke="black" d="M95.5,-219.31C95.5,-211.29 95.5,-201.55 95.5,-192.57"/>
<polygon fill="black" stroke="black" points="99,-192.53 95.5,-182.53 92,-192.53 99,-192.53"/>
</g>
<!-- nd000010 -->
<g id="node11" class="node">
<title>nd000010</title>
<polygon fill="none" stroke="black" points="15,-73.5 15,-109.5 176,-109.5 176,-73.5 15,-73.5"/>
<text text-anchor="middle" x="44.5" y="-87.8" font-family="Times,serif" font-size="14.00">[1:23]</text>
<polyline fill="none" stroke="black" points="74,-73.5 74,-109.5 "/>
<text text-anchor="middle" x="108.5" y="-87.8" font-family="Times,serif" font-size="14.00">TK_INT</text>
<polyline fill="none" stroke="black" points="143,-73.5 143,-109.5 "/>
<text text-anchor="middle" x="159.5" y="-87.8" font-family="Times,serif" font-size="14.00">&#39;2&#39;</text>
</g>
<!-- nd000009&#45;&gt;nd000010 -->
<g id="edge10" class="edge">
<title>nd000009&#45;&gt;nd000010</title>
<path fill="none" stroke="black" d="M95.5,-146.31C95.5,-138.29 95.5,-128.55 95.5,-119.57"/>
<polygon fill="black" stroke="black" points="99,-119.53 95.5,-109.53 92,-119.53 99,-119.53"/>
</g>
<!-- nd000011 -->
<g id="node12" class="node">
<title>nd000011</title>
<polygon fill="none" stroke="black" points="0,-0.5 0,-36.5 191,-36.5 191,-0.5 0,-0.5"/>
<text text-anchor="middle" x="25" y="-14.8" font-family="Times,serif" font-size="14.00">[2:1]</text>
<polyline fill="none" stroke="black" points="50,-0.5 50,-36.5 "/>
<text text-anchor="middle" x="92.5" y="-14.8" font-family="Times,serif" font-size="14.00">TK_NULL</text>
<polyline fill="none" stroke="black" points="135,-0.5 135,-36.5 "/>
<text text-anchor="middle" x="163" y="-14.8" font-family="Times,serif" font-size="14.00">&#39;EOF&#39;</text>
</g>
<!-- nd000010&#45;&gt;nd000011 -->
<g id="edge11" class="edge">
<title>nd000010&#45;&gt;nd000011</title>
<path fill="none" stroke="black" d="M95.5,-73.31C95.5,-65.29 95.5,-55.55 95.5,-46.57"/>
<polygon fill="black" stroke="black" points="99,-46.53 95.5,-36.53 92,-46.53 99,-46.53"/>
</g>
</g>
</svg>
